<mxfile host="app.diagrams.net" modified="2021-02-06T06:20:40.655Z" agent="5.0 (X11)" etag="pjsXRhYewQU_frR-G4i_" version="14.2.9" type="github">
  <diagram id="kgpKYQtTHZ0yAKxKKP6v" name="Page-1">
    <mxGraphModel dx="1422" dy="773" grid="1" gridSize="10" guides="1" tooltips="1" connect="1" arrows="1" fold="1" page="1" pageScale="1" pageWidth="1100" pageHeight="850" math="0" shadow="0">
      <root>
        <mxCell id="0" />
        <mxCell id="1" parent="0" />
        <mxCell id="lqCM-QAhMmLckP0O0tv4-1" value="" style="rounded=1;whiteSpace=wrap;html=1;labelBackgroundColor=none;noLabel=1;fontColor=none;" vertex="1" parent="1">
          <mxGeometry x="40" y="50" width="190" height="360" as="geometry" />
        </mxCell>
        <mxCell id="lqCM-QAhMmLckP0O0tv4-2" value="Resume App" style="text;html=1;strokeColor=none;fillColor=none;align=center;verticalAlign=middle;whiteSpace=wrap;rounded=0;fontStyle=1" vertex="1" parent="1">
          <mxGeometry x="80" y="80" width="110" height="20" as="geometry" />
        </mxCell>
        <mxCell id="lqCM-QAhMmLckP0O0tv4-3" value="Submit" style="rounded=1;whiteSpace=wrap;html=1;labelBackgroundColor=none;fontColor=none;fontStyle=1" vertex="1" parent="1">
          <mxGeometry x="90" y="350" width="90" height="30" as="geometry" />
        </mxCell>
        <mxCell id="lqCM-QAhMmLckP0O0tv4-5" value="" style="endArrow=classic;html=1;fontColor=none;" edge="1" parent="1">
          <mxGeometry width="50" height="50" relative="1" as="geometry">
            <mxPoint x="233" y="360" as="sourcePoint" />
            <mxPoint x="380" y="360" as="targetPoint" />
          </mxGeometry>
        </mxCell>
        <mxCell id="lqCM-QAhMmLckP0O0tv4-6" value="" style="rounded=1;whiteSpace=wrap;html=1;labelBackgroundColor=none;fontColor=none;" vertex="1" parent="1">
          <mxGeometry x="380" y="250" width="120" height="170" as="geometry" />
        </mxCell>
        <mxCell id="lqCM-QAhMmLckP0O0tv4-7" value="" style="rounded=0;whiteSpace=wrap;html=1;labelBackgroundColor=none;fontColor=none;" vertex="1" parent="1">
          <mxGeometry x="380" y="260" width="120" height="30" as="geometry" />
        </mxCell>
        <mxCell id="lqCM-QAhMmLckP0O0tv4-8" value="" style="rounded=0;whiteSpace=wrap;html=1;labelBackgroundColor=none;fontColor=none;" vertex="1" parent="1">
          <mxGeometry x="380" y="300" width="120" height="30" as="geometry" />
        </mxCell>
        <mxCell id="lqCM-QAhMmLckP0O0tv4-9" value="Server" style="text;html=1;strokeColor=none;fillColor=none;align=center;verticalAlign=middle;whiteSpace=wrap;rounded=0;labelBackgroundColor=none;fontColor=none;" vertex="1" parent="1">
          <mxGeometry x="420" y="380" width="40" height="20" as="geometry" />
        </mxCell>
        <mxCell id="lqCM-QAhMmLckP0O0tv4-10" value="&lt;h1&gt;Heading&lt;/h1&gt;&lt;p&gt;Lorem ipsum dolor sit amet, consectetur adipisicing elit, sed do eiusmod tempor incididunt ut labore et dolore magna aliqua.&lt;/p&gt;" style="text;html=1;strokeColor=none;fillColor=none;spacing=5;spacingTop=-20;whiteSpace=wrap;overflow=hidden;rounded=0;labelBackgroundColor=none;fontColor=none;" vertex="1" parent="1">
          <mxGeometry x="470" y="470" width="250" height="220" as="geometry" />
        </mxCell>
      </root>
    </mxGraphModel>
  </diagram>
</mxfile>
